<svg xmlns="http://www.w3.org/2000/svg" viewBox="0 0 48 48">
  <path fill="#181717" d="M24 0C10.74 0 0 10.74 0 24a24 24 0 0 0 16.38 22.8c1.2.22 1.64-.52 1.64-1.16v-4.04c-6.67 1.45-8.08-2.84-8.08-2.84-1.09-2.76-2.66-3.5-2.66-3.5-2.18-1.5.16-1.47.16-1.47 2.41.17 3.68 2.48 3.68 2.48 2.14 3.67 5.6 2.61 6.97 2 .22-1.55.84-2.61 1.53-3.21-5.33-.6-10.93-2.66-10.93-11.83 0-2.61.93-4.75 2.46-6.42-.25-.61-1.07-3.05.23-6.36 0 0 2.01-.64 6.58 2.45a22.77 22.77 0 0 1 5.99-.8c2.03.01 4.07.27 5.99.8 4.57-3.1 6.57-2.45 6.57-2.45 1.3 3.31.48 5.75.23 6.36a9.17 9.17 0 0 1 2.46 6.42c0 9.2-5.6 11.22-10.94 11.82.86.74 1.63 2.21 1.63 4.46v6.6c0 .64.43 1.39 1.65 1.15A24 24 0 0 0 48 24c0-13.26-10.74-24-24-24z"/>
</svg>
