<svg xmlns="http://www.w3.org/2000/svg" viewBox="0 0 48 48">
  <path fill="#EA4335" d="M24 9.5c3.94 0 7.07 1.62 9.22 2.98l6.73-6.73C35.86 2.45 30.27 0 24 0 14.66 0 6.51 5.3 2.56 13.02l7.84 6.1C12.13 13.25 17.57 9.5 24 9.5z"/>
  <path fill="#34A853" d="M46.1 24.56c0-1.57-.14-3.06-.39-4.56H24v8.63h12.56c-.56 2.88-2.21 5.33-4.72 6.98l7.32 5.68C43.71 37.38 46.1 31.48 46.1 24.56z"/>
  <path fill="#4A90E2" d="M9.4 28.88A14.49 14.49 0 0 1 8 24c0-1.7.29-3.34.8-4.88l-7.84-6.1A23.97 23.97 0 0 0 0 24c0 3.84.92 7.46 2.56 10.98l7.84-6.1z"/>
  <path fill="#FBBC05" d="M24 48c6.48 0 11.91-2.13 15.88-5.81l-7.32-5.68c-2.04 1.38-4.65 2.23-8.56 2.23-6.43 0-11.87-3.75-14.6-9.37l-7.84 6.1C6.51 42.7 14.66 48 24 48z"/>
</svg>
